<svg width="20" height="20" viewBox="0 0 20 20" fill="none" xmlns="http://www.w3.org/2000/svg">
<path d="M10.0002 8.33334C11.8419 8.33334 13.3335 6.84167 13.3335 5.00001C13.3335 3.15834 11.8419 1.66667 10.0002 1.66667C8.15855 1.66667 6.66688 3.15834 6.66688 5.00001C6.66688 6.84167 8.15855 8.33334 10.0002 8.33334ZM10.0002 3.33334C10.9169 3.33334 11.6669 4.08334 11.6669 5.00001C11.6669 5.91667 10.9169 6.66667 10.0002 6.66667C9.08355 6.66667 8.33355 5.91667 8.33355 5.00001C8.33355 4.08334 9.08355 3.33334 10.0002 3.33334ZM15.3252 10.4667C13.9252 9.75 12.1086 9.16667 10.0002 9.16667C7.89188 9.16667 6.07522 9.75 4.67522 10.4667C4.2686 10.6761 3.92797 10.9941 3.69113 11.3854C3.4543 11.7767 3.33052 12.226 3.33355 12.6833V18.3333H5.00022V12.6833C5.00022 12.3667 5.16688 12.0833 5.41688 11.95C6.42522 11.4417 8.02522 10.8333 10.0002 10.8333C10.6336 10.8333 11.2252 10.8917 11.7752 11L10.4836 13.75H8.12522C6.85855 13.75 5.83355 14.775 5.83355 16.0417C5.83355 17.3083 6.85855 18.3333 8.12522 18.3333H15.0002C15.9169 18.3333 16.6669 17.5833 16.6669 16.6667V12.6833C16.6669 11.75 16.1585 10.8917 15.3252 10.4667ZM9.11688 16.6667H8.12522C7.78355 16.6667 7.50022 16.3833 7.50022 16.0417C7.50022 15.7 7.78355 15.4167 8.12522 15.4167H9.70022L9.11688 16.6667ZM15.0002 16.6667H10.9585L13.4086 11.4417C13.8586 11.6083 14.2502 11.7833 14.5835 11.95C14.8335 12.0833 15.0002 12.3667 15.0002 12.6833V16.6667Z" fill="white"/>
</svg>
