<svg width="21" height="21" viewBox="0 0 21 21" fill="none" xmlns="http://www.w3.org/2000/svg">
<path d="M6.83317 2.5V0.833332H8.49984V2.5H13.4998V0.833332H15.1665V2.5H18.4998C18.7208 2.5 18.9328 2.5878 19.0891 2.74408C19.2454 2.90036 19.3332 3.11232 19.3332 3.33333V7.5H17.6665V4.16667H15.1665V5.83333H13.4998V4.16667H8.49984V5.83333H6.83317V4.16667H4.33317V15.8333H9.33317V17.5H3.49984C3.27882 17.5 3.06686 17.4122 2.91058 17.2559C2.7543 17.0996 2.6665 16.8877 2.6665 16.6667V3.33333C2.6665 3.11232 2.7543 2.90036 2.91058 2.74408C3.06686 2.5878 3.27882 2.5 3.49984 2.5H6.83317ZM15.1665 10C14.2824 10 13.4346 10.3512 12.8095 10.9763C12.1844 11.6014 11.8332 12.4493 11.8332 13.3333C11.8332 14.2174 12.1844 15.0652 12.8095 15.6904C13.4346 16.3155 14.2824 16.6667 15.1665 16.6667C16.0506 16.6667 16.8984 16.3155 17.5235 15.6904C18.1486 15.0652 18.4998 14.2174 18.4998 13.3333C18.4998 12.4493 18.1486 11.6014 17.5235 10.9763C16.8984 10.3512 16.0506 10 15.1665 10ZM10.1665 13.3333C10.1665 12.6767 10.2958 12.0265 10.5471 11.4199C10.7984 10.8133 11.1667 10.2621 11.631 9.7978C12.0953 9.33351 12.6465 8.96521 13.2531 8.71393C13.8597 8.46266 14.5099 8.33333 15.1665 8.33333C15.8231 8.33333 16.4733 8.46266 17.0799 8.71393C17.6865 8.96521 18.2377 9.33351 18.702 9.7978C19.1663 10.2621 19.5346 10.8133 19.7859 11.4199C20.0372 12.0265 20.1665 12.6767 20.1665 13.3333C20.1665 14.6594 19.6397 15.9312 18.702 16.8689C17.7644 17.8065 16.4926 18.3333 15.1665 18.3333C13.8404 18.3333 12.5687 17.8065 11.631 16.8689C10.6933 15.9312 10.1665 14.6594 10.1665 13.3333ZM14.3332 10.8333V13.6783L16.244 15.5892L17.4223 14.4108L15.9998 12.9883V10.8333H14.3332Z" fill="white"/>
<rect x="0.5" y="13.5" width="7" height="7" rx="3.5" fill="#F97316"/>
<rect x="0.5" y="13.5" width="7" height="7" rx="3.5" stroke="white"/>
</svg>
