<svg width="20" height="20" viewBox="0 0 20 20" fill="none" xmlns="http://www.w3.org/2000/svg">
<path d="M15.0002 15C14.5418 15 14.1496 14.837 13.8235 14.5108C13.4974 14.1847 13.3341 13.7922 13.3335 13.3333C13.3329 12.8744 13.4963 12.4822 13.8235 12.1567C14.1507 11.8311 14.5429 11.6678 15.0002 11.6667C15.4574 11.6656 15.8499 11.8289 16.1777 12.1567C16.5054 12.4845 16.6685 12.8767 16.6668 13.3333C16.6652 13.79 16.5021 14.1825 16.1777 14.5108C15.8532 14.8392 15.4607 15.0022 15.0002 15ZM11.6668 18.3333V17.8542C11.6668 17.2431 11.9724 16.7533 12.5835 16.385C13.1946 16.0167 14.0002 15.8328 15.0002 15.8333C16.0002 15.8339 16.8057 16.0181 17.4168 16.3858C18.0279 16.7536 18.3335 17.2431 18.3335 17.8542V18.3333H11.6668ZM10.0002 8.33334C10.4585 8.33334 10.851 8.17028 11.1777 7.84417C11.5043 7.51806 11.6674 7.12556 11.6668 6.66667C11.6663 6.20778 11.5032 5.81556 11.1777 5.49001C10.8521 5.16445 10.4596 5.00112 10.0002 5.00001C9.54072 4.99889 9.1485 5.16223 8.8235 5.49001C8.4985 5.81778 8.33516 6.21001 8.3335 6.66667C8.33183 7.12334 8.49516 7.51584 8.8235 7.84417C9.15183 8.17251 9.54405 8.33556 10.0002 8.33334ZM8.3335 13.3333C8.3335 13.7917 8.49683 14.1842 8.8235 14.5108C9.15016 14.8375 9.54238 15.0006 10.0002 15C10.4579 14.9994 10.8504 14.8364 11.1777 14.5108C11.5049 14.1853 11.6679 13.7928 11.6668 13.3333C11.6657 12.8739 11.5027 12.4817 11.1777 12.1567C10.8527 11.8317 10.4602 11.6683 10.0002 11.6667C9.54016 11.665 9.14794 11.8283 8.8235 12.1567C8.49905 12.485 8.33572 12.8772 8.3335 13.3333ZM10.0002 14.1667C9.76405 14.1667 9.56627 14.0867 9.40683 13.9267C9.24739 13.7667 9.16738 13.5689 9.16683 13.3333C9.16627 13.0978 9.24627 12.9 9.40683 12.74C9.56738 12.58 9.76516 12.5 10.0002 12.5C10.2352 12.5 10.4332 12.58 10.5943 12.74C10.7554 12.9 10.8352 13.0978 10.8335 13.3333C10.8318 13.5689 10.7518 13.7669 10.5935 13.9275C10.4352 14.0881 10.2374 14.1678 10.0002 14.1667ZM5.8335 5.83334C5.8335 4.65278 6.23294 3.66334 7.03183 2.86501C7.83072 2.06667 8.82016 1.66723 10.0002 1.66667C11.1802 1.66612 12.1699 2.06556 12.9693 2.86501C13.7688 3.66445 14.1679 4.65389 14.1668 5.83334V9.16667C14.1668 9.40278 14.0868 9.60084 13.9268 9.76084C13.7668 9.92084 13.5691 10.0006 13.3335 10C13.0979 9.99945 12.9002 9.91945 12.7402 9.76001C12.5802 9.60056 12.5002 9.40278 12.5002 9.16667V5.83334C12.5002 5.12501 12.2502 4.53139 11.7502 4.05251C11.2502 3.57362 10.6668 3.33389 10.0002 3.33334C9.3335 3.33278 8.75016 3.57251 8.25016 4.05251C7.75016 4.53251 7.50016 5.12612 7.50016 5.83334V14.1667C7.50016 14.75 7.68766 15.2708 8.06266 15.7292C8.43766 16.1875 8.896 16.4792 9.43766 16.6042C9.63211 16.6458 9.79544 16.7431 9.92766 16.8958C10.0599 17.0486 10.1257 17.2222 10.1252 17.4167C10.1252 17.6944 10.021 17.9167 9.81266 18.0833C9.60433 18.25 9.36127 18.2986 9.0835 18.2292C8.13905 18.0208 7.36127 17.5453 6.75016 16.8025C6.13905 16.0597 5.8335 15.1811 5.8335 14.1667V5.83334Z" fill="white"/>
</svg>
