<svg width="21" height="21" viewBox="0 0 21 21" fill="none" xmlns="http://www.w3.org/2000/svg">
<path fill-rule="evenodd" clip-rule="evenodd" d="M17.5609 10.25L10.8667 16.915C9.97455 17.7861 8.77461 18.2697 7.52776 18.2609C6.28091 18.2521 5.08794 17.7515 4.20818 16.8679C3.32842 15.9843 2.833 14.7891 2.82961 13.5422C2.82622 12.2954 3.31513 11.0975 4.19007 10.2092L10.8842 3.54417C11.7764 2.67312 12.9764 2.18943 14.2232 2.19825C15.4701 2.20708 16.663 2.70771 17.5428 3.59131C18.4225 4.47491 18.918 5.67005 18.9214 6.91693C18.9247 8.16381 18.4358 9.36163 17.5609 10.25ZM16.3942 4.735C15.8206 4.15966 15.0421 3.83546 14.2296 3.83359C13.4172 3.83171 12.6372 4.15231 12.0609 4.725L5.3659 11.39C4.78983 11.9635 4.46518 12.7424 4.46339 13.5553C4.46159 14.3682 4.78279 15.1485 5.35632 15.7246C5.92985 16.3007 6.70873 16.6253 7.52162 16.6271C8.33452 16.6289 9.11483 16.3077 9.6909 15.7342L16.3851 9.06917C16.9607 8.4955 17.285 7.71681 17.2869 6.90416C17.2888 6.0915 16.968 5.31133 16.3951 4.735H16.3942Z" fill="white"/>
<path fill-rule="evenodd" clip-rule="evenodd" d="M7.76498 7.10333C7.92126 6.94711 8.13318 6.85934 8.35415 6.85934C8.57512 6.85934 8.78704 6.94711 8.94332 7.10333L13.985 12.145C14.1368 12.3022 14.2208 12.5127 14.2189 12.7312C14.217 12.9497 14.1293 13.1587 13.9748 13.3132C13.8203 13.4677 13.6113 13.5553 13.3928 13.5572C13.1743 13.5591 12.9638 13.4751 12.8067 13.3233L7.76498 8.28167C7.60876 8.12539 7.521 7.91347 7.521 7.6925C7.521 7.47153 7.60876 7.25961 7.76498 7.10333Z" fill="white"/>
<rect x="0.5" y="13.5" width="7" height="7" rx="3.5" fill="#F97316"/>
<rect x="0.5" y="13.5" width="7" height="7" rx="3.5" stroke="white"/>
</svg>
