<svg width="20" height="20" viewBox="0 0 20 20" fill="none" xmlns="http://www.w3.org/2000/svg">
<path fill-rule="evenodd" clip-rule="evenodd" d="M14.1667 6.66667C14.1667 8.96792 12.3012 10.8333 10 10.8333C7.69875 10.8333 5.83333 8.96792 5.83333 6.66667C5.83333 4.36542 7.69875 2.5 10 2.5C12.3012 2.5 14.1667 4.36542 14.1667 6.66667ZM13.3333 6.66667C13.3333 7.55072 12.9821 8.39857 12.357 9.02369C11.7319 9.64881 10.8841 10 10 10C9.11594 10 8.2681 9.64881 7.64298 9.02369C7.01786 8.39857 6.66667 7.55072 6.66667 6.66667C6.66667 5.78261 7.01786 4.93477 7.64298 4.30964C8.2681 3.68452 9.11594 3.33333 10 3.33333C10.8841 3.33333 11.7319 3.68452 12.357 4.30964C12.9821 4.93477 13.3333 5.78261 13.3333 6.66667ZM7.46417 12.0229L7.46875 12.0321L7.5 12.0933H12.3954C12.4908 11.9125 12.7071 11.6242 12.9167 11.6721C13.3875 11.7792 13.8617 11.9283 14.3171 12.1121L14.3308 12.1054L14.3354 12.1146L14.3387 12.1208C16.0533 12.8175 17.5 13.9983 17.5 15.2375V17.5H2.5V15.2375C2.5 13.6646 4.83167 12.1846 7.08333 11.6721C7.26708 11.6304 7.37625 11.8471 7.46417 12.0229ZM13.6267 12.7429C13.448 12.6802 13.2672 12.6237 13.0846 12.5733L12.8988 12.9267H6.99708L6.82458 12.5987L6.67458 12.6437C6.67153 12.671 6.66931 12.7021 6.66792 12.7371C6.6625 12.8808 6.67333 13.0512 6.69708 13.2246C6.7213 13.4054 6.76032 13.5839 6.81375 13.7583C7.10644 13.793 7.37747 13.93 7.57897 14.1451C7.78046 14.3602 7.89946 14.6396 7.91495 14.9339C7.93045 15.2283 7.84143 15.5186 7.66364 15.7537C7.48584 15.9888 7.23069 16.1535 6.94325 16.2187C6.65582 16.2839 6.35458 16.2454 6.09274 16.1101C5.83091 15.9748 5.62531 15.7513 5.51227 15.4791C5.39923 15.2069 5.38601 14.9035 5.47495 14.6225C5.56389 14.3415 5.74926 14.1009 5.99833 13.9433L5.995 13.9317C5.93936 13.7369 5.898 13.5383 5.87125 13.3375C5.85358 13.2092 5.8419 13.0802 5.83625 12.9508C5.32125 13.1708 4.84083 13.4367 4.43833 13.73C3.6375 14.315 3.33333 14.8617 3.33333 15.2375V16.6667H16.6667V15.2375C16.6667 14.8612 16.3625 14.3146 15.5617 13.7304C15.2124 13.4794 14.8405 13.2615 14.4508 13.0796C14.4338 13.3054 14.3992 13.5295 14.3475 13.75H14.5833C14.6607 13.75 14.7365 13.7716 14.8023 13.8123C14.8681 13.853 14.9213 13.9112 14.9558 13.9804L15.3725 14.8138C15.4017 14.8717 15.4167 14.9354 15.4167 15V15.8333C15.4167 15.9438 15.3728 16.0498 15.2946 16.128C15.2165 16.2061 15.1105 16.25 15 16.25H14.1667V15.4167H14.5833V15.0983L14.3258 14.5833H13.1742L12.9167 15.0983V15.4167H13.3333V16.25H12.5C12.3895 16.25 12.2835 16.2061 12.2054 16.128C12.1272 16.0498 12.0833 15.9438 12.0833 15.8333V15C12.0833 14.9354 12.0983 14.8717 12.1275 14.8138L12.5442 13.9804C12.5787 13.9112 12.6319 13.853 12.6977 13.8123C12.7635 13.7716 12.8393 13.75 12.9167 13.75H13.4842L13.4996 13.6983C13.5387 13.5646 13.5737 13.3983 13.5975 13.225C13.6208 13.0533 13.6317 12.8854 13.6267 12.7429ZM7.08333 15C7.08333 15.2392 6.89083 15.4229 6.66667 15.4229C6.4425 15.4229 6.25 15.2396 6.25 15C6.25 14.7608 6.4425 14.5771 6.66667 14.5771C6.89083 14.5771 7.08333 14.7604 7.08333 15Z" fill="white"/>
</svg>
